# xmcd
# 
# Track frame offsets:
#     150
#     41657
#     65562
#     102052
#     128170
#     176922
# 
# Disc length: 2788
# 
# Revision: 2
# Processed by: cddbd v1.5.2PL0 Copyright (c) Steve Scherf et al.
# Submitted via: fre:ac v1.0.31
# 
DISCID=500ae206
DTITLE=Canned Heat - Dust My Broom
DYEAR=0
DGENRE=
TTITLE0=When Things Go Wrong
TTITLE1=I'd Rather Be The Devil
TTITLE2=Wish You Would
TTITLE3=Dust My Broom
TTITLE4=Sweet Sixteen
TTITLE5=Bullfrog Blues
EXTD=Stereo 8350-2 Master Records, Roermond/Holland\nManufactured by PILZ Compact Disc, Kranzberg/Munich
EXTT0=
EXTT1=
EXTT2=
EXTT3=
EXTT4=
EXTT5=
PLAYORDER=
